<svg width="360" height="153" viewBox="0 0 360 153" fill="none" xmlns="http://www.w3.org/2000/svg">
<path d="M104.632 140H114.808V95.2H104.888L104.76 96.8C104.504 100.512 102.776 102.24 99 102.432L93.688 102.688V110.88H104.632V140ZM146.197 140.64C160.149 140.64 170.581 130.784 170.581 117.6C170.581 104.48 160.149 94.56 146.197 94.56C132.245 94.56 121.813 104.48 121.813 117.6C121.813 130.784 132.245 140.64 146.197 140.64ZM146.197 131.104C138.453 131.104 133.013 125.536 133.013 117.6C133.013 109.728 138.453 104.16 146.197 104.16C153.941 104.16 159.381 109.728 159.381 117.6C159.381 125.536 153.941 131.104 146.197 131.104ZM200.26 140.64C214.212 140.64 224.644 130.784 224.644 117.6C224.644 104.48 214.212 94.56 200.26 94.56C186.308 94.56 175.876 104.48 175.876 117.6C175.876 130.784 186.308 140.64 200.26 140.64ZM200.26 131.104C192.516 131.104 187.076 125.536 187.076 117.6C187.076 109.728 192.516 104.16 200.26 104.16C208.004 104.16 213.444 109.728 213.444 117.6C213.444 125.536 208.004 131.104 200.26 131.104ZM265.465 113.824H253.177V101.664H244.409V113.824H232.185V122.72H244.409V134.88H253.177V122.72H265.465V113.824Z" fill="#050038"/>
</svg>
