<svg width="360" height="154" viewBox="0 0 360 154" fill="none" xmlns="http://www.w3.org/2000/svg">
<path d="M77.632 140.468H87.808V95.6678H77.888L77.76 97.2678C77.504 100.98 75.776 102.708 72 102.9L66.688 103.156V111.348H77.632V140.468ZM104.517 128.244C100.101 128.244 97.093 130.996 97.093 134.708C97.093 137.972 99.589 140.596 103.301 140.596C104.773 140.596 106.117 140.148 107.013 139.38C106.181 142.836 102.981 144.436 97.861 143.796V148.148C107.013 149.3 112.453 144.948 112.453 137.204C112.453 131.444 109.253 128.244 104.517 128.244ZM141.26 141.108C155.212 141.108 165.644 131.252 165.644 118.068C165.644 104.948 155.212 95.0278 141.26 95.0278C127.308 95.0278 116.876 104.948 116.876 118.068C116.876 131.252 127.308 141.108 141.26 141.108ZM141.26 131.572C133.516 131.572 128.076 126.004 128.076 118.068C128.076 110.196 133.516 104.628 141.26 104.628C149.004 104.628 154.444 110.196 154.444 118.068C154.444 126.004 149.004 131.572 141.26 131.572ZM195.322 141.108C209.274 141.108 219.706 131.252 219.706 118.068C219.706 104.948 209.274 95.0278 195.322 95.0278C181.37 95.0278 170.938 104.948 170.938 118.068C170.938 131.252 181.37 141.108 195.322 141.108ZM195.322 131.572C187.578 131.572 182.138 126.004 182.138 118.068C182.138 110.196 187.578 104.628 195.322 104.628C203.066 104.628 208.506 110.196 208.506 118.068C208.506 126.004 203.066 131.572 195.322 131.572ZM249.385 141.108C263.337 141.108 273.769 131.252 273.769 118.068C273.769 104.948 263.337 95.0278 249.385 95.0278C235.433 95.0278 225.001 104.948 225.001 118.068C225.001 131.252 235.433 141.108 249.385 141.108ZM249.385 131.572C241.641 131.572 236.201 126.004 236.201 118.068C236.201 110.196 241.641 104.628 249.385 104.628C257.129 104.628 262.569 110.196 262.569 118.068C262.569 126.004 257.129 131.572 249.385 131.572ZM314.59 114.292H302.302V102.132H293.534V114.292H281.31V123.188H293.534V135.348H302.302V123.188H314.59V114.292Z" fill="#050038"/>
</svg>
