<svg width="360" height="154" viewBox="0 0 360 154" fill="none" xmlns="http://www.w3.org/2000/svg">
<path d="M106.999 108.896C110.114 108.896 112.887 109.536 115.319 110.816C117.794 112.096 119.714 113.888 121.079 116.192C122.444 118.496 123.127 121.163 123.127 124.192C123.127 127.392 122.338 130.251 120.759 132.768C119.223 135.243 117.047 137.184 114.231 138.592C111.415 139.957 108.194 140.64 104.567 140.64C100.898 140.64 97.6338 139.957 94.7751 138.592C91.9591 137.184 89.7618 135.221 88.1831 132.704C86.6471 130.187 85.9005 127.307 85.9431 124.064H96.9511C97.0365 126.368 97.7831 128.203 99.1911 129.568C100.599 130.891 102.455 131.552 104.759 131.552C107.02 131.552 108.812 130.912 110.135 129.632C111.5 128.352 112.183 126.645 112.183 124.512C112.183 122.379 111.5 120.672 110.135 119.392C108.77 118.069 106.978 117.408 104.759 117.408C102.156 117.408 100.087 118.347 98.5511 120.224H88.3111L89.0791 95.2001H120.119V104.096H97.4631L97.1431 112.096C99.6605 109.963 102.946 108.896 106.999 108.896Z" fill="#050038"/>
<path d="M152.885 140.64C148.32 140.64 144.16 139.637 140.405 137.632C136.693 135.627 133.77 132.875 131.637 129.376C129.546 125.835 128.501 121.909 128.501 117.6C128.501 113.248 129.546 109.323 131.637 105.824C133.77 102.325 136.693 99.5734 140.405 97.5681C144.16 95.5627 148.32 94.5601 152.885 94.5601C157.45 94.5601 161.589 95.5627 165.301 97.5681C169.013 99.5734 171.914 102.325 174.005 105.824C176.138 109.323 177.205 113.248 177.205 117.6C177.205 121.909 176.138 125.835 174.005 129.376C171.914 132.875 169.013 135.627 165.301 137.632C161.589 139.637 157.45 140.64 152.885 140.64ZM152.885 131.104C155.402 131.104 157.664 130.528 159.669 129.376C161.674 128.224 163.232 126.624 164.341 124.576C165.493 122.528 166.069 120.203 166.069 117.6C166.069 114.997 165.493 112.672 164.341 110.624C163.232 108.576 161.674 106.976 159.669 105.824C157.664 104.672 155.402 104.096 152.885 104.096C150.325 104.096 148.042 104.672 146.037 105.824C144.032 106.976 142.453 108.576 141.301 110.624C140.192 112.672 139.637 114.997 139.637 117.6C139.637 120.203 140.192 122.528 141.301 124.576C142.453 126.624 144.032 128.224 146.037 129.376C148.042 130.528 150.325 131.104 152.885 131.104Z" fill="#050038"/>
<path d="M184.037 95.2001H200.165L208.485 125.088H208.741L217.125 95.2001H233.189V140H223.013V105.888H222.693L213.285 136.16H204.005L194.597 105.888H194.213V140H184.037V95.2001Z" fill="#050038"/>
<path d="M275.341 122.656H263.053V134.88H254.285V122.656H241.997V113.76H254.285V101.6H263.053V113.76H275.341V122.656Z" fill="#050038"/>
</svg>
