<svg width="360" height="153" viewBox="0 0 360 153" fill="none" xmlns="http://www.w3.org/2000/svg">
<path d="M125.76 94.56C114.56 94.56 106.944 101.536 106.944 111.328C106.944 120.544 113.728 127.008 122.88 127.008C124.224 127.008 125.376 126.816 126.464 126.496L114.112 140H126.272L137.152 127.2C139.904 123.936 144.64 118.432 144.64 111.008C144.64 101.408 136.96 94.56 125.76 94.56ZM125.824 119.2C121.216 119.2 118.016 116.064 118.016 111.456C118.016 106.848 121.28 103.712 125.824 103.712C130.496 103.712 133.632 106.912 133.632 111.456C133.632 116 130.496 119.2 125.824 119.2ZM168.51 94.56C157.31 94.56 149.694 101.536 149.694 111.328C149.694 120.544 156.478 127.008 165.63 127.008C166.974 127.008 168.126 126.816 169.214 126.496L156.862 140H169.022L179.902 127.2C182.654 123.936 187.39 118.432 187.39 111.008C187.39 101.408 179.71 94.56 168.51 94.56ZM168.574 119.2C163.966 119.2 160.766 116.064 160.766 111.456C160.766 106.848 164.03 103.712 168.574 103.712C173.246 103.712 176.382 106.912 176.382 111.456C176.382 116 173.246 119.2 168.574 119.2ZM205.768 118.688C212.936 118.688 218.312 113.504 218.312 106.656C218.312 99.744 212.936 94.56 205.768 94.56C198.6 94.56 193.288 99.744 193.288 106.656C193.288 113.504 198.6 118.688 205.768 118.688ZM201.288 140H211.656L244.552 95.2H234.12L201.288 140ZM205.768 111.008C203.336 111.008 201.608 109.216 201.608 106.656C201.608 104.032 203.336 102.24 205.768 102.24C208.264 102.24 209.992 104.032 209.992 106.656C209.992 109.216 208.264 111.008 205.768 111.008ZM240.008 140.64C247.176 140.64 252.552 135.52 252.552 128.608C252.552 121.76 247.176 116.576 240.008 116.576C232.904 116.576 227.528 121.76 227.528 128.608C227.528 135.52 232.904 140.64 240.008 140.64ZM240.008 133.024C237.576 133.024 235.848 131.168 235.848 128.608C235.848 126.048 237.576 124.192 240.008 124.192C242.504 124.192 244.232 126.048 244.232 128.608C244.232 131.168 242.504 133.024 240.008 133.024Z" fill="#050038"/>
</svg>
