<svg width="360" height="153" viewBox="0 0 360 153" fill="none" xmlns="http://www.w3.org/2000/svg">
<path d="M190.52 113.312V105.184H180.344L180.472 95.2H172.024L171.832 105.184H162.168L162.296 95.2H153.784L153.656 105.184H143.096V113.312H153.528L153.4 121.952H143.096V130.08H153.272L153.144 140H161.656L161.784 130.08H171.512L171.384 140H179.832L179.96 130.08H190.52V121.952H180.088L180.216 113.312H190.52ZM171.64 121.952H161.912L162.04 113.312H171.768L171.64 121.952ZM207.132 140H217.308V95.2H207.388L207.26 96.8C207.004 100.512 205.276 102.24 201.5 102.432L196.188 102.688V110.88H207.132V140Z" fill="#050038"/>
</svg>
