<svg width="280" height="60" viewBox="0 0 280 60" fill="none" xmlns="http://www.w3.org/2000/svg">
<path d="M12.9685 40.0474C19.2911 40.0474 21.7574 36.1865 21.7574 29.5808C21.7574 22.9765 18.8732 18.3716 13.1537 18.3716H6.7436V40.0474H12.9685ZM0 12.6047H13.9911C22.8719 12.6047 28.5914 19.7677 28.5914 29.5808C28.5914 34.9757 26.7773 39.7214 23.2899 42.6515C20.8251 44.6968 17.6163 45.8603 13.4324 45.8603H0V12.6047ZM47.8514 33.9545C47.8514 29.3021 45.6667 26.1393 41.8073 26.1393C37.9005 26.1393 35.7603 29.3021 35.7603 33.9545C35.7603 38.6053 37.9005 41.7207 41.8073 41.7207C45.6667 41.7207 47.8514 38.6053 47.8514 33.9545M29.3443 33.9545C29.3443 26.8374 34.4131 21.3491 41.8073 21.3491C49.2001 21.3491 54.2689 26.8374 54.2689 33.9545C54.2689 41.0686 49.2001 46.5583 41.8073 46.5583C34.4116 46.5583 29.3428 41.0701 29.3428 33.9545M55.3138 33.9545C55.3138 26.8374 59.9646 21.3491 67.2181 21.3491C73.4044 21.3491 77.2164 24.9314 78.0538 30.0936H71.8689C71.451 28.0008 69.8236 26.418 67.4982 26.418C63.6847 26.418 61.7328 29.3496 61.7328 33.9545C61.7328 38.466 63.5454 41.4895 67.4048 41.4895C69.9629 41.4895 71.777 40.1408 72.195 37.4434H78.2865C77.8685 42.5122 73.9143 46.5583 67.5442 46.5583C60.0121 46.5583 55.3138 41.0701 55.3138 33.9545M94.7527 45.8617V43.0709H94.6134C92.986 45.257 91.126 46.5124 87.7779 46.5124C82.4764 46.5124 79.5003 43.1184 79.5003 37.9073V21.9998H85.777V36.8372C85.777 39.628 87.0339 41.1635 89.7298 41.1635C92.7059 41.1635 94.52 38.9314 94.52 35.7686V21.9998H100.844V45.8617H94.7527V45.8617ZM131.656 45.8617H137.978V21.9998H131.656V45.8617V45.8617ZM131.656 18.665H137.978V12.7514H131.656V18.665V18.665ZM157.296 32.8829C157.296 29.3955 155.436 26.4194 151.623 26.4194C148.414 26.4194 146.275 28.9301 146.275 32.9303C146.275 36.9765 148.414 39.3494 151.67 39.3494C155.669 39.3494 157.296 36.4192 157.296 32.8844M140.602 46.5583H146.877C147.39 48.0464 148.737 49.2098 151.667 49.2098C155.248 49.2098 156.969 47.4891 156.969 44.2329V41.6274H156.829C155.433 43.2088 153.621 44.4182 150.597 44.4182C145.297 44.4182 140.089 40.2327 140.089 33.0237C140.089 25.9066 144.366 21.3491 150.412 21.3491C153.388 21.3491 155.573 22.5111 157.015 24.512H157.108V21.9998H163.199V44.0462C163.199 47.3957 162.129 49.6737 160.363 51.3026C158.362 53.1626 155.294 54 151.761 54C145.25 54 141.251 51.2092 140.6 46.5583M172.098 25.256H172.237C173.865 22.6979 176.051 21.3491 179.306 21.3491C184.235 21.3491 187.536 25.0692 187.536 30.2788V45.8603H181.212V31.2096C181.212 28.6515 179.723 26.8374 177.073 26.8374C174.283 26.8374 172.237 29.0694 172.237 32.3256V45.8603H165.913V21.9998H172.098V25.256V25.256ZM117.244 25.8133C112.314 24.7461 109.989 23.9547 109.989 21.2558C109.989 18.8844 112.36 17.3489 115.988 17.3489C119.298 17.3489 121.828 18.9022 122.347 21.9998H128.832C128.173 15.5422 123.381 12 116.034 12C108.642 12 103.293 15.3955 103.293 21.9538C103.293 28.8842 108.733 30.4656 114.686 31.8143C119.754 32.9778 122.917 33.6284 122.917 36.8831C122.917 39.9541 119.894 41.1635 116.454 41.1635C111.711 41.1635 109.432 39.582 108.966 35.5818H102.363C102.596 42.6055 107.711 46.6043 116.732 46.6043C124.219 46.6043 129.659 42.8382 129.659 36.0932C129.659 28.9301 124.079 27.3028 117.244 25.8133" fill="#050038"/>
</svg>
