<svg width="280" height="60" viewBox="0 0 280 60" fill="none" xmlns="http://www.w3.org/2000/svg">
<rect width="280" height="60" fill="white"/>
<path d="M4.08672 16.5234V20.162H0V24.9067H4.08672V43.9803C4.08672 45.4275 5.56721 46.5869 7.42881 46.5869C9.2904 46.5869 10.8061 45.4363 10.8061 43.9892V24.9155H16.2384V20.1709H10.8061V16.5234C10.8061 12.1345 14.2068 11.325 18.8622 12.3718V7.62707C12.3071 6.14732 4.08672 6.8353 4.08672 16.5234ZM25.0187 24.9155H24.878V20.1709H19.4398V43.9951C19.4398 45.4423 20.9056 46.6018 22.7819 46.6018C24.6581 46.6018 26.1503 45.4423 26.1503 43.9951V32C26.1503 26.3419 29.7944 24.9037 34.2065 24.9037V19.5659C30.2165 19.5451 26.4787 20.8766 25.0187 24.9155ZM71.9838 19.5778C65.5048 19.5778 60.2572 22.8249 60.2572 29.2065C60.2572 32.6049 61.7494 35.1137 64.127 36.718C63.9511 36.8336 63.781 36.9522 63.6139 37.0768C60.6676 39.2801 60.351 43.0788 63.051 45.1517C61.7289 46.3378 59.8555 48.4611 59.8555 51.4206C59.8555 56.1178 64.1944 59.1515 71.9808 59.1515C79.7673 59.1515 85.7127 55.4595 85.7127 49.7748C85.7127 44.09 81.8077 41.8571 74.6838 41.8571H70.0254C66.7625 41.8571 67.041 39.5767 68.1169 38.5951C68.1726 38.5447 68.2313 38.4972 68.2958 38.4468C69.5083 38.7046 70.7448 38.8299 71.9838 38.8205C78.4657 38.8205 83.7104 35.5585 83.7104 29.1976C83.725 27.8805 83.4685 26.5747 82.9569 25.3633C83.9492 25.0888 84.9714 24.9404 86 24.9215V20.1768C83.1182 20.1768 81.2595 20.3725 79.2895 21.3422C77.293 20.1531 74.7513 19.5629 71.9838 19.5629V19.5778ZM68.4218 46.6107H74.678C77.2461 46.6107 78.9963 47.4173 78.9963 49.7748C78.9963 52.9419 76.3109 54.4009 71.9603 54.4009C65.282 54.386 65.6807 48.8347 68.4218 46.5958V46.6107ZM71.9838 34.0758C69.2134 34.0758 66.9619 32.9875 66.9619 29.2036C66.9619 25.4197 69.2134 24.3314 71.9838 24.3314C74.7542 24.3314 77.0086 25.4167 77.0086 29.2036C77.0086 32.9904 74.76 34.0758 71.9838 34.0758ZM46.3993 19.5629C39.117 19.5629 34.6726 24.1208 34.6726 33.0794C34.6726 42.038 39.1229 46.5958 46.3993 46.5958C53.6756 46.5958 58.1259 42.038 58.1259 33.0794C58.1259 24.1208 53.6844 19.5629 46.3993 19.5629ZM46.3993 41.8422C43.6259 41.8422 41.3773 40.7035 41.3773 33.0794C41.3773 25.4553 43.6406 24.3225 46.3993 24.3225C49.1579 24.3225 51.4212 25.4582 51.4212 33.0794C51.4212 40.7006 49.1726 41.8422 46.3993 41.8422Z" fill="#050038"/>
</svg>
