<svg width="224" height="64" viewBox="0 0 224 64" fill="none" xmlns="http://www.w3.org/2000/svg">
<g clip-path="url(#clip0_21800_850)">
<path d="M112 56C111.761 56 111.524 55.9958 111.287 55.9889L116.192 42.5091H122.942C124.126 42.5091 125.427 41.5983 125.832 40.4856L131.153 25.8693C132.024 23.4763 130.653 21.5186 128.107 21.5186H118.742L110.886 43.1092H110.883L106.428 55.3484C95.8604 52.8362 88 43.3364 88 32C88 20.9906 95.4133 11.7133 105.52 8.886L100.924 21.5186H100.923L93.2822 42.5091L98.3686 42.5096L104.866 24.6729H108.689L102.191 42.5096L107.276 42.5104L113.331 25.8693C114.202 23.4763 112.831 21.5186 110.287 21.5186H106.012L110.921 8.02522C111.279 8.00933 111.638 8 112 8C125.255 8 136 18.7451 136 32C136 45.2548 125.255 56 112 56H112ZM126.521 24.66H122.7L117.348 39.3442H121.17L126.521 24.66Z" fill="#050038"/>
</g>
<defs>
<clipPath id="clip0_21800_850">
<rect width="48" height="48" fill="white" transform="translate(88 8)"/>
</clipPath>
</defs>
</svg>
