<svg width="360" height="153" viewBox="0 0 360 153" fill="none" xmlns="http://www.w3.org/2000/svg">
<path d="M124.288 140H134.912V95.2H124.288V140ZM163.634 140.64C175.858 140.64 183.346 134.496 183.346 125.152C183.346 117.472 178.482 113.056 169.33 111.904L161.01 110.816C158.77 110.496 156.018 109.728 156.018 106.912C156.018 104.288 158.322 102.624 161.65 102.624C165.362 102.624 167.666 104.288 168.434 107.616L179.762 107.552C179.122 99.552 172.274 94.56 162.034 94.56C151.602 94.56 145.33 99.808 145.33 108.064C145.33 114.912 149.554 118.88 157.938 119.968L167.09 121.12C169.586 121.504 172.21 122.4 172.21 125.792C172.21 129.568 169.01 131.808 163.826 131.808C157.426 131.808 153.586 128.416 153.202 122.336H141.17C141.618 132.832 149.81 140.64 163.634 140.64ZM211.947 140.64C225.899 140.64 236.331 130.784 236.331 117.6C236.331 104.48 225.899 94.56 211.947 94.56C197.995 94.56 187.563 104.48 187.563 117.6C187.563 130.784 197.995 140.64 211.947 140.64ZM211.947 131.104C204.203 131.104 198.763 125.536 198.763 117.6C198.763 109.728 204.203 104.16 211.947 104.16C219.691 104.16 225.131 109.728 225.131 117.6C225.131 125.536 219.691 131.104 211.947 131.104Z" fill="#050038"/>
</svg>
