<svg width="224" height="64" viewBox="0 0 224 64" fill="none" xmlns="http://www.w3.org/2000/svg">
<rect width="224" height="64" fill="white"/>
<path d="M89.3548 17.4336C92.5257 17.4336 94.8805 19.0387 94.8805 21.4079C94.8805 23.2598 93.6899 24.1413 92.6409 24.563C94.3644 25.0804 95.9294 26.0722 95.9294 28.2426C95.9294 31.4528 93.0466 32.5452 89.9261 32.5452H82V17.4336H89.3548ZM86.856 23.2071H88.6419C89.3476 23.2071 89.9237 22.6345 89.9237 22.0979C89.9237 21.5205 89.3692 20.9528 88.6419 20.9528H86.856V23.2071V23.2071ZM86.856 29.0643H89.0691C90.0797 29.0643 90.7254 28.4367 90.7254 27.6797C90.7254 26.9658 90.0341 26.3429 89.2132 26.3429H86.856V29.0643ZM93.2842 34.191C96.4551 34.191 98.8099 35.796 98.8099 38.1653C98.8099 40.0171 97.6193 40.8987 96.5703 41.3179C98.2938 41.8378 99.8589 42.8272 99.8589 44.9976C99.8589 48.2077 96.976 49.3001 93.8555 49.3001H85.927V34.191H93.2842ZM90.783 39.9644H92.5689C93.2746 39.9644 93.8507 39.3919 93.8507 38.8552C93.8507 38.2779 93.2962 37.7101 92.5689 37.7101H90.783V39.9644ZM90.783 45.8217H92.9962C94.0067 45.8217 94.6524 45.194 94.6524 44.437C94.6524 43.7231 93.9611 43.1003 93.1402 43.1003H90.783V45.8217V45.8217ZM96.3111 32.5404V17.4312H108.522V21.0797H101.153V23.0609H107.137V26.4819H101.153V28.9062H108.522V32.5404H96.3111ZM108.757 30.4802L111.645 27.7324C112.343 28.3097 113.239 28.9925 114.369 28.9925C115.365 28.9925 115.915 28.4199 115.915 27.8498C115.915 26.2231 109.34 26.9754 109.34 21.7936C109.343 19.1728 111.741 17 115.409 17C117.85 17 119.664 17.9175 120.812 19.0075L117.943 21.7337C117.943 21.7337 117.115 20.9791 115.968 20.9791C115.303 20.9791 114.655 21.3049 114.655 21.9206C114.655 23.5137 121.325 22.7255 121.325 27.845C121.325 31.0168 118.577 32.974 115.14 32.974C111.786 32.974 109.921 31.6109 108.757 30.4802ZM125.063 32.5404V21.0654H121.064V17.4312H133.918V21.0654H129.919V32.5404H125.063ZM100.024 34.1814H104.866V43.232C104.866 44.152 105.783 44.9976 106.738 44.9976C107.641 44.9976 108.551 44.2334 108.551 43.1841V34.1814H113.378V43.1218C113.378 46.6697 110.425 49.499 106.609 49.499C102.771 49.499 100.022 46.4182 100.022 42.9278L100.024 34.1814ZM119.35 49.2906V43.8908L113.659 34.1814H118.558L121.777 39.3847L125.008 34.1814H129.916L124.204 43.9483V49.293H119.35V49.2906Z" fill="#050038"/>
<path d="M142 42.4487V52.0001H129.917L127.06 49.1493V45.2995L129.917 42.4487H142Z" fill="#050038"/>
<path d="M129.448 47.2231C129.448 47.5776 129.16 47.8651 128.805 47.8651C128.45 47.8651 128.162 47.5776 128.162 47.2231C128.162 46.8685 128.45 46.5811 128.805 46.5811C129.16 46.5811 129.448 46.8685 129.448 47.2231Z" fill="#050038"/>
</svg>
