<svg width="280" height="60" viewBox="0 0 280 60" fill="none" xmlns="http://www.w3.org/2000/svg">
<rect width="280" height="60" fill="white"/>
<path d="M0.419309 19.0607C1.23951 17.4556 3.30254 16.6604 5.00145 17.2243C6.06408 17.5605 6.92607 18.4151 7.33199 19.4461C9.6003 24.8095 11.8788 30.1691 14.1462 35.5324C14.2084 35.4181 14.2679 35.302 14.3199 35.1822C16.0625 31.0515 17.819 26.9254 19.5699 22.7975C20.4087 20.8571 21.7648 19.0616 23.6616 18.0593C24.7159 17.4964 25.8955 17.188 27.0826 17.0905C30.1544 16.7552 33.2782 18.2191 35.1964 20.6007C36.9789 19.0727 39.0363 17.7732 41.3502 17.2494C42.6013 16.9605 43.9008 17.0162 45.166 17.1713C46.7478 17.3766 48.3111 17.9219 49.5828 18.9028C50.2237 19.3848 50.7754 19.9756 51.2742 20.6017C53.471 18.4783 56.4379 17.0757 59.5208 17.0441C61.4854 17.0023 63.4713 17.5243 65.1247 18.5962C67.028 19.8075 68.4361 21.7693 68.9479 23.9698C69.1987 24.985 69.2099 26.0374 69.2071 27.0768C69.2071 31.5354 69.2062 35.994 69.208 40.4526C69.1959 41.0462 69.1737 41.6481 69.0102 42.2231C68.7241 43.3238 67.9931 44.3455 66.9295 44.8025C65.4321 45.4565 63.4583 45.2113 62.3696 43.922C61.4928 42.9309 61.2717 41.5496 61.3098 40.2678C61.3117 36.1194 61.3098 31.9711 61.3107 27.8227C61.3098 26.7462 60.9141 25.6464 60.1208 24.9005C59.3954 24.2066 58.3838 23.8639 57.389 23.8564C56.2837 23.8286 55.1402 24.1788 54.3265 24.9479C53.5444 25.677 53.1246 26.7536 53.132 27.8162C53.132 32.09 53.1329 36.3628 53.1311 40.6365C53.1255 41.7438 52.8701 42.8956 52.1632 43.7743C51.6049 44.4942 50.755 44.9651 49.8568 45.0942C48.8545 45.24 47.7705 45.0933 46.928 44.5034C46.1691 43.9842 45.6666 43.1538 45.4307 42.276C45.1892 41.4428 45.2291 40.5669 45.2282 39.7095C45.2282 35.746 45.2273 31.7834 45.2291 27.8199C45.2198 26.8344 44.8957 25.8303 44.2278 25.0928C43.4791 24.2512 42.3329 23.8444 41.2229 23.8555C40.1055 23.8471 38.9509 24.2243 38.1595 25.0352C37.4015 25.7829 37.0346 26.8604 37.0365 27.9128C37.0365 32.2172 37.0355 36.5226 37.0365 40.827C37.029 41.9137 36.7188 43.034 36.0045 43.8727C35.4806 44.4988 34.731 44.9214 33.9303 45.0673C32.7804 45.28 31.4967 45.084 30.5891 44.3047C29.5906 43.4566 29.1615 42.1079 29.1577 40.8298C29.154 35.5928 29.1577 30.3567 29.1559 25.1206C29.1661 24.711 28.9664 24.2977 28.6134 24.0812C28.0738 23.719 27.2238 23.8936 26.9656 24.5187C24.5097 29.869 22.05 35.2175 19.5978 40.5697C19.0637 41.6834 18.4998 42.811 17.6527 43.7251C17.0359 44.392 16.2139 44.8713 15.3175 45.0376C13.9093 45.3069 12.3368 45.1137 11.1915 44.1941C9.98207 43.2216 9.28449 41.7893 8.64728 40.4108C5.8718 34.3657 3.08704 28.3252 0.316204 22.2792C-0.127798 21.2621 -0.113865 20.0425 0.419309 19.0607Z" fill="#050038"/>
<path d="M162.17 17.9657C163.996 17.4688 165.933 17.4149 167.792 17.7586C169.855 18.1385 171.812 19.1055 173.341 20.5443C176.211 23.2083 177.561 27.2155 177.5 31.0721C177.451 31.9694 176.637 32.7581 175.732 32.7404C169.429 32.7423 163.125 32.7395 156.821 32.7413C156.965 34.5675 157.559 36.3751 158.601 37.8882C159.631 39.3884 161.144 40.5513 162.864 41.1449C164.64 41.7774 166.593 41.8127 168.424 41.4096C170.168 41.0222 171.782 40.138 173.121 38.9639C173.429 38.7019 173.712 38.3861 174.105 38.2505C174.786 37.9904 175.607 38.2691 176.027 38.857C176.486 39.4552 176.446 40.3776 175.925 40.9266C174.639 42.2307 173.134 43.3435 171.44 44.0569C169.718 44.7898 167.837 45.0879 165.972 45.0972C164.01 45.1037 162.036 44.6969 160.265 43.8442C157.192 42.4063 154.801 39.6531 153.709 36.4522C152.913 34.2015 152.72 31.766 152.978 29.402C153.352 26.1268 154.819 22.9324 157.269 20.6938C158.656 19.4138 160.347 18.4636 162.17 17.9657ZM162.177 21.515C160.583 22.2181 159.268 23.473 158.378 24.9611C157.482 26.4268 156.992 28.1146 156.804 29.8144C157.258 29.846 157.714 29.8237 158.17 29.8302C163.311 29.8321 168.453 29.8256 173.593 29.833C173.602 29.3872 173.51 28.9487 173.441 28.5103C173.12 26.7427 172.445 25.0066 171.298 23.6077C170.278 22.3472 168.83 21.4416 167.25 21.0784C165.569 20.6985 163.758 20.8053 162.177 21.515Z" fill="#050038"/>
<path d="M72.3364 17.6792C72.9866 17.499 73.7483 17.6384 74.2331 18.126C74.5155 18.3917 74.7161 18.7335 74.8462 19.0967C77.0941 25.597 79.3354 32.1 81.574 38.604C81.8954 37.8302 82.1286 37.0212 82.4212 36.2354C84.395 30.5237 86.3735 24.8149 88.3576 19.1069C88.5777 18.4446 89.0747 17.8186 89.7843 17.6635C90.4801 17.5186 91.2817 17.5966 91.8334 18.0824C92.1827 18.3787 92.3991 18.7948 92.5487 19.2212C94.6628 25.3527 96.7685 31.4879 98.8789 37.6212C99.0034 37.9473 99.0842 38.291 99.2412 38.6049C101.517 32.0508 103.802 25.4994 106.089 18.9499C106.263 18.4827 106.57 18.0434 107.023 17.813C107.7 17.4675 108.573 17.5566 109.168 18.0285C109.722 18.4484 109.995 19.2026 109.823 19.8779C109.696 20.3748 109.504 20.8514 109.334 21.3334C106.872 28.1867 104.392 35.0343 101.927 41.8866C101.731 42.4077 101.564 42.94 101.346 43.4527C101.051 44.1029 100.493 44.6788 99.7772 44.8358C99.0889 44.9705 98.3068 44.8655 97.7773 44.3723C97.1977 43.8661 97.0221 43.0895 96.7732 42.3957C94.6795 36.3487 92.5747 30.3054 90.4763 24.2603C90.4503 24.2083 90.3974 24.1052 90.3714 24.0532C89.541 26.3224 88.7719 28.6158 87.9619 30.8934C86.5807 34.8355 85.2013 38.7786 83.8247 42.7235C83.6343 43.2697 83.4633 43.8558 83.0342 44.272C82.4667 44.8841 81.5257 45.0188 80.7538 44.7773C80.0014 44.5358 79.4831 43.8493 79.2314 43.1267C76.5637 35.6771 73.8792 28.234 71.2134 20.7835C71.0657 20.3544 70.8762 19.9215 70.8994 19.459C70.8948 18.6286 71.5478 17.8817 72.3364 17.6792Z" fill="#050038"/>
<path d="M119.521 17.6967C121.636 17.549 123.791 17.536 125.864 18.0348C127.428 18.4073 128.939 19.0965 130.148 20.1703C131.591 21.4122 132.511 23.1762 132.921 25.019C133.384 26.9409 133.235 28.9277 133.26 30.8849C133.26 34.9116 133.258 38.9382 133.261 42.9658C133.275 43.5649 133.008 44.1724 132.529 44.5393C131.958 44.9833 131.139 45.0233 130.49 44.7353C129.879 44.4641 129.477 43.8139 129.47 43.1507C129.461 42.2915 129.484 41.4322 129.46 40.573C128.5 41.7434 127.379 42.7968 126.054 43.5427C124.25 44.5858 122.159 45.092 120.081 45.0976C117.98 45.1487 115.85 44.674 114.011 43.643C112.518 42.8014 111.241 41.5205 110.562 39.9321C109.859 38.328 109.794 36.5009 110.143 34.801C110.51 33.0454 111.557 31.4552 113.005 30.4C114.833 29.0522 117.101 28.4512 119.333 28.2357C122.736 27.9589 126.187 28.324 129.465 29.2761C129.523 27.5456 129.373 25.7138 128.432 24.2109C127.673 22.9486 126.403 22.0541 125.013 21.6091C123.874 21.2376 122.67 21.0936 121.475 21.1168C119.849 21.0918 118.202 21.2627 116.661 21.8042C116.162 21.9677 115.69 22.2008 115.199 22.381C114.539 22.6207 113.766 22.3838 113.318 21.8562C112.639 21.1066 112.805 19.7189 113.738 19.2526C115.546 18.3795 117.518 17.8454 119.521 17.6967ZM118.337 31.4812C117.027 31.8398 115.735 32.4974 114.904 33.6037C114.056 34.6998 113.803 36.1683 114.019 37.5161C114.219 38.7682 114.972 39.9005 116.009 40.6213C117.633 41.7815 119.716 42.0983 121.669 41.9236C123.68 41.7462 125.681 41.0254 127.215 39.6888C128.559 38.5342 129.448 36.8371 129.512 35.0555C129.522 34.109 129.515 33.1625 129.514 32.2169C127.855 31.7172 126.147 31.3874 124.425 31.21C122.399 31.0233 120.32 30.9471 118.337 31.4812Z" fill="#050038"/>
<path d="M138.071 19.5515C138.055 18.5297 138.936 17.5813 139.964 17.56C141.027 17.4875 142.02 18.3932 142.043 19.4595C142.06 20.9838 142.043 22.5099 142.049 24.0352C142.378 23.4713 142.649 22.8741 143.033 22.3427C144.656 19.9862 147.197 18.2232 150.03 17.7132C150.757 17.6083 151.567 17.4708 152.234 17.8702C153.407 18.5306 153.495 20.4376 152.413 21.2253C151.948 21.6071 151.332 21.6396 150.765 21.7278C148.745 22.0817 146.799 23.0041 145.351 24.4736C144.146 25.6551 143.296 27.1673 142.776 28.7659C142.216 30.4945 142.015 32.3244 142.049 34.1367C142.049 37.0162 142.048 39.8957 142.049 42.7752C142.056 43.3242 141.855 43.8824 141.461 44.2707C140.981 44.776 140.213 44.9655 139.547 44.7778C138.894 44.6209 138.352 44.0933 138.162 43.4523C138.035 43.0845 138.076 42.6916 138.072 42.3108C138.072 34.7246 138.073 27.1385 138.071 19.5515Z" fill="#050038"/>
</svg>
