<svg width="40" height="48" viewBox="0 0 40 48" fill="none" xmlns="http://www.w3.org/2000/svg">
<path d="M18.1208 27.5159H22.9756V25.8953H22.4425C22.4425 26.5152 21.9891 26.9722 21.2965 26.9722H20.5491V24.5528H21.355V24.0161H18.1208V24.5528H18.9356V26.9722H18.1208V27.5142V27.5159Z" fill="#050038"/>
<path d="M25.3104 27.5177L27.1984 27.5195L28.8013 24.5545H29.6054V24.0161H27.1878V24.5545H27.8874L26.7184 26.7118L25.5353 24.5545H26.3837V24.0161H22.8768L22.875 24.5545H23.6791L25.3104 27.5177Z" fill="#050038"/>
<path d="M8.45375 24.0161H4.94684L4.94507 24.5545H5.74741L7.38042 27.5177L9.26848 27.5195L10.8714 24.5545H11.6755V24.0161H9.25786V24.5545H9.9557L8.7885 26.7118L7.60536 24.5545H8.45375V24.0161Z" fill="#050038"/>
<path d="M12.1453 25.7697C12.1453 26.8006 12.976 27.6206 14.6409 27.6206C16.3058 27.6206 17.1276 26.8006 17.1276 25.7697C17.1276 24.7531 16.2562 23.9419 14.6303 23.9419C13.0061 23.9419 12.1436 24.7531 12.1436 25.7697H12.1453ZM15.4981 25.7786C15.4875 26.4144 15.2236 27.0769 14.6143 27.0662C14.021 27.0556 13.7606 26.4003 13.7713 25.7485C13.7837 25.0737 14.106 24.4856 14.6622 24.4945C15.2183 24.5051 15.5105 25.1038 15.4999 25.7786H15.4981Z" fill="#050038"/>
<path d="M30.0691 25.7697C30.0691 26.8006 30.8998 27.6206 32.5647 27.6206C34.2296 27.6206 35.0514 26.8006 35.0514 25.7697C35.0514 24.7531 34.18 23.9419 32.5558 23.9419C30.9317 23.9419 30.0691 24.7531 30.0691 25.7697ZM32.5859 24.4945C33.1403 24.5051 33.4343 25.1038 33.4219 25.7786C33.4095 26.4144 33.1474 27.0769 32.5381 27.0662C31.9448 27.0556 31.6844 26.4003 31.695 25.7485C31.7074 25.0737 32.0298 24.4856 32.5859 24.4945Z" fill="#050038"/>
<path d="M36.4577 14.6362L34.4261 16.6677C36.1672 19.3546 37.1803 22.5586 37.1803 26C37.1803 35.4881 29.4881 43.1803 20 43.1803C10.5119 43.1803 2.8197 35.4881 2.8197 26C2.8197 16.5119 10.5119 8.8197 20 8.8197C23.4485 8.8197 26.6596 9.83634 29.3518 11.5863L31.3833 9.55473C28.1527 7.3142 24.2295 6 20 6C8.95501 6 0 14.9532 0 26C0 37.045 8.95324 46 20 46C31.045 46 40 37.0468 40 26C40 21.7793 38.6911 17.8633 36.4594 14.6362H36.4577Z" fill="#050038"/>
<path d="M30.0587 6.7876V7.34906C31.2719 8.00616 32.4125 8.78193 33.4699 9.65334L30.6201 12.5031C31.6952 13.3462 32.6658 14.3168 33.5107 15.3901L36.3569 12.5439C37.2301 13.603 38.0059 14.7454 38.663 15.941H39.2103V6.7876H30.0569H30.0587Z" fill="#050038"/>
</svg>
